<svg id="Слой_1" xmlns="http://www.w3.org/2000/svg" viewBox="0 0 38.2 43.8"><path d="M18 32.5h-7.5c-.4 0-.7-.2-.9-.6-.2-.3-.1-.8.1-1.1l3.5-4.4c1.5-1.9 2.2-3.1 2.2-4.9 0-1.4-1.7-2.5-2.6-2.5-1.8 0-2.9.9-2.9 2.3v1.2c0 .6-.4 1-1 1s-1-.4-1-1v-1.2c0-2.5 2-4.3 4.9-4.3 1.8 0 4.6 1.9 4.6 4.5s-1.2 4.3-2.7 6.2l-2.2 2.8H18c.6 0 1 .4 1 1 0 .5-.5 1-1 1zM28.1 32.5c-.6 0-1-.4-1-1v-5.8h-4.7c-.4 0-.7-.2-.9-.5-.2-.3-.2-.7 0-1l3.4-5.6c.3-.5.9-.6 1.4-.3.5.3.6.9.3 1.4l-2.5 4.1H28c.6 0 1 .4 1 1v6.8c.1.4-.3.9-.9.9z"/><path d="M19.1 43.8C8.6 43.8 0 35.2 0 24.7 0 14.2 8.6 5.6 19.1 5.6s19.1 8.6 19.1 19.1c0 10.5-8.6 19.1-19.1 19.1zm0-36.2C9.7 7.6 2 15.3 2 24.7s7.7 17.1 17.1 17.1c9.4 0 17.1-7.7 17.1-17.1S28.5 7.6 19.1 7.6z"/><path d="M17.9 14.3c-.2 0-.3 0-.5-.1-.5-.3-.7-.9-.4-1.4l3-5.7-3-5.7c-.2-.4 0-1 .4-1.3.5-.3 1.1-.1 1.4.4l3.3 6.1c.2.3.2.6 0 .9l-3.3 6.1c-.2.5-.5.7-.9.7z"/></svg>
