<svg id="Слой_1" xmlns="http://www.w3.org/2000/svg" viewBox="0 0 54.2 62.3">
  <path d="M25.5 46H14.6c-.4 0-.7-.2-.9-.6-.2-.3-.1-.8.1-1.1l5.1-6.4c2.2-2.8 3.3-4.6 3.3-7.4 0-2.4-2.7-4.1-4.2-4.1-2.8 0-4.7 1.4-4.7 3.7v1.7c0 .6-.4 1-1 1s-1-.4-1-1v-1.7c0-3.4 2.7-5.7 6.7-5.7 2.5 0 6.2 2.6 6.2 6.1 0 3.6-1.7 6.1-3.7 8.6L16.7 44h8.8c.6 0 1 .4 1 1s-.5 1-1 1zM40.2 46c-.6 0-1-.4-1-1v-8.8h-7.3c-.4 0-.7-.2-.9-.5-.2-.3-.2-.7 0-1l4.9-8.1c.3-.5.9-.6 1.4-.3.5.3.6.9.3 1.4l-4 6.6h6.5c.6 0 1 .4 1 1V45c.1.5-.4 1-.9 1z"/>
  <path d="M27.1 62.3C12.2 62.3 0 50.1 0 35.2S12.2 8.1 27.1 8.1s27.1 12.2 27.1 27.1S42 62.3 27.1 62.3zm0-52.2C13.3 10.1 2 21.3 2 35.2 2 49 13.3 60.3 27.1 60.3S52.2 49 52.2 35.2c0-13.9-11.3-25.1-25.1-25.1z"/>
  <path d="M25.4 19.7c-.2 0-.3 0-.5-.1-.5-.3-.7-.9-.4-1.4L29 9.9l-4.5-8.4c-.3-.5-.1-1.1.4-1.4.5-.2 1.1-.1 1.4.4L31 9.4c.2.3.2.6 0 .9l-4.7 8.9c-.2.3-.5.5-.9.5z"/>
</svg>
