<svg id="Слой_1" xmlns="http://www.w3.org/2000/svg" viewBox="0 0 25.5 34.2">
  <path d="M12.7 18.9c-3.4 0-6.2-2.8-6.2-6.2s2.8-6.2 6.2-6.2 6.2 2.8 6.2 6.2-2.8 6.2-6.2 6.2zm0-10.4c-2.3 0-4.2 1.9-4.2 4.2s1.9 4.2 4.2 4.2 4.2-1.9 4.2-4.2-1.9-4.2-4.2-4.2z"/>
  <path d="M12.7 34.2c-.3 0-.6-.1-.8-.4C11.5 33.3 0 19.5 0 12.7 0 5.7 5.7 0 12.7 0s12.7 5.7 12.7 12.7c0 6.8-11.5 20.5-12 21.1-.1.3-.4.4-.7.4zm0-32.2C6.8 2 2 6.8 2 12.7c0 4.7 7.1 14.5 10.7 18.9 3.6-4.4 10.7-14.3 10.7-18.9C23.5 6.8 18.6 2 12.7 2z"/>
</svg>
