<svg xmlns="http://www.w3.org/2000/svg" viewBox="0 0 53.3 45.3"><path d="M52.3 45.3H1c-.6 0-1-.4-1-1V8.9c0-.6.4-1 1-1h51.3c.6 0 1 .4 1 1v35.4c0 .6-.4 1-1 1zM2 43.3h49.3V9.9H2v33.4z"/><path d="M32 9.9c-.6 0-1-.4-1-1V6.6C31 4 29.1 2 26.6 2c-2.5 0-4.3 2-4.3 4.6V8c0 .6-.4 1-1 1s-1-.4-1-1V6.6C20.3 2.8 23 0 26.6 0 30.2 0 33 2.9 33 6.6v2.3c0 .6-.4 1-1 1zm-1 19.5h-8.8c-.6 0-1-.4-1-1v-7.1c0-.6.4-1 1-1H31c.6 0 1 .4 1 1v7.1c0 .6-.4 1-1 1zm-7.8-2H30v-5.1h-6.8v5.1z"/><path d="M21.8 25.3s-.1 0 0 0C14 24.7 6.9 22.2.6 17.9c-.5-.3-.6-.9-.3-1.4.3-.5.9-.6 1.4-.3 6 4.1 12.7 6.4 20.1 7 .6 0 1 .5.9 1.1.1.6-.4 1-.9 1zm9.6 0c-.5 0-1-.4-1-.9 0-.6.4-1 .9-1.1 7.3-.6 14.3-3 20.2-7 .5-.3 1.1-.2 1.4.3.3.5.2 1.1-.3 1.4-6.1 4.1-13.4 6.7-21.2 7.3.1 0 0 0 0 0z"/></svg>