<svg id="Слой_1" xmlns="http://www.w3.org/2000/svg" viewBox="0 0 42.6 52.8">
  <style>
    .st0{fill:#45AE00;} .st1{fill:none;stroke:#45AE00;stroke-width:2;stroke-linecap:round;stroke-linejoin:round;stroke-miterlimit:10;}
  </style>
  <path class="st0" d="M6 47.8H1c-.6 0-1-.4-1-1V1c0-.6.4-1 1-1h35.6c.6 0 1 .4 1 1v5c0 .6-.4 1-1 1s-1-.4-1-1V2H2v43.8h4c.6 0 1 .4 1 1s-.4 1-1 1z"/>
  <path class="st0" d="M32.7 52.8H6.9C5.9 52.8 5 52 5 51V6.9C5 5.9 5.9 5 6.9 5h33.9c1 0 1.8.8 1.8 1.8v36c0 .5-.2 1-.5 1.3L34 52.3c-.4.3-.8.5-1.3.5zM7 50.8h25.6l8-8V7H7v43.8z"/>
  <path class="st0" d="M33 52.8c-.1 0-.3 0-.4-.1-.4-.2-.6-.5-.6-.9v-8.6c0-.6.4-1 1-1h8.6c.4 0 .8.2.9.6.2.4.1.8-.2 1.1l-8.6 8.6c-.2.2-.4.3-.7.3zm1-8.6v5.2l5.2-5.2H34zM22.8 24.3H12.3c-.6 0-1-.4-1-1v-6.7c0-.6.4-1 1-1h10.5c.6 0 1 .4 1 1v6.7c0 .5-.5 1-1 1zm-9.5-2h8.5v-4.7h-8.5v4.7zM35.4 17.6h-8c-.6 0-1-.4-1-1s.4-1 1-1h8c.6 0 1 .4 1 1s-.5 1-1 1zM35.4 20.9h-8c-.6 0-1-.4-1-1s.4-1 1-1h8c.6 0 1 .4 1 1s-.5 1-1 1zM35.4 24.3h-8c-.6 0-1-.4-1-1s.4-1 1-1h8c.6 0 1 .4 1 1s-.5 1-1 1zM35.4 33H11.5c-.6 0-1-.4-1-1s.4-1 1-1h23.9c.6 0 1 .4 1 1s-.5 1-1 1zM35.4 36.6H11.5c-.6 0-1-.4-1-1s.4-1 1-1h23.9c.6 0 1 .4 1 1s-.5 1-1 1zM35.4 40.2H11.5c-.6 0-1-.4-1-1s.4-1 1-1h23.9c.6 0 1 .4 1 1s-.5 1-1 1z"/>
</svg>
