<svg width="24" height="28" viewBox="0 0 24 28" xmlns="http://www.w3.org/2000/svg" xmlns:xlink="http://www.w3.org/1999/xlink"><title>25A792AE-84A8-4D81-9760-485069F95C8A</title><defs><path id="a" d="M.018.036V27.9h23.934V.036H.018z"/></defs><g fill="none" fill-rule="evenodd"><mask id="b" fill="#fff"><use xlink:href="#a"/></mask><path d="M.984 27.9h21.984a.973.973 0 0 0 .984-.983V1.02a.974.974 0 0 0-.984-.984H6.48c-.073 0-.17 0-.24.023-.025 0-.049.025-.049.025-.073.023-.12.048-.192.071-.023.025-.048.025-.071.049a.635.635 0 0 0-.193.168L.24 6.852a.989.989 0 0 0-.169.265c-.023.023-.023.071-.023.096-.025.071-.025.142-.048.215v19.464A.993.993 0 0 0 .984 27.9zM5.496 3.707V6.54h-2.4l2.4-2.833zM1.968 8.484H6.48a.973.973 0 0 0 .983-.984V2.004h14.52v23.928H1.968V8.484z" fill="#FF9000" mask="url(#b)"/><text font-family="HelveticaNeueCyr-Bold, HelveticaNeueCyr" font-size="10" font-weight="bold" fill="#FF9000"><tspan x="4" y="15">zip</tspan></text></g></svg>