<?xml version="1.0" encoding="UTF-8" standalone="no"?>
<svg
   xmlns:dc="http://purl.org/dc/elements/1.1/"
   xmlns:cc="http://creativecommons.org/ns#"
   xmlns:rdf="http://www.w3.org/1999/02/22-rdf-syntax-ns#"
   xmlns:svg="http://www.w3.org/2000/svg"
   xmlns="http://www.w3.org/2000/svg"
   viewBox="0 0 584.73065 339.77332"
   height="339.77332"
   width="584.73065"
   xml:space="preserve"
   id="svg2"
   version="1.1"><metadata
     id="metadata8"><rdf:RDF><cc:Work
         rdf:about=""><dc:format>image/svg+xml</dc:format><dc:type
           rdf:resource="http://purl.org/dc/dcmitype/StillImage" /></cc:Work></rdf:RDF></metadata><defs
     id="defs6"><clipPath
       id="clipPath18"
       clipPathUnits="userSpaceOnUse"><path
         id="path16"
         d="M 0,254.83 H 438.548 V 0 H 0 Z" /></clipPath></defs><g
     transform="matrix(1.3333333,0,0,-1.3333333,0,339.77333)"
     id="g10"><g
       id="g12"><g
         clip-path="url(#clipPath18)"
         id="g14"><g
           transform="translate(197.7763,141.4375)"
           id="g20"><path
             id="path22"
             style="fill:#83b9a3;fill-opacity:1;fill-rule:evenodd;stroke:none"
             d="M 0,0 C 12.615,13.518 35.115,27.152 56.045,36.754 105.84,59.602 170.43,64.311 170.43,64.311 126.979,64.311 94.461,64.127 63.928,59.365 -55.699,40.709 -88.086,-10.462 -88.086,-36.676 c 0,-30.68 41.461,-80.328 152.209,-99.053 29.873,-5.041 63.063,-5.708 103.897,-5.708 0,0 -23.811,1.532 -54.303,8.992 -24.217,5.913 -52.651,16.05 -76.721,28.655 -29.889,15.635 -53.042,36.174 -53.042,66.351 0,9.161 2.805,23.24 16.046,37.439" /></g><g
           transform="translate(331.54,192.1465)"
           id="g24"><path
             id="path26"
             style="fill:#ffffff;fill-opacity:1;fill-rule:nonzero;stroke:none"
             d="m 0,0 c 0,-10.35 0.924,-27.4 -2.742,-41.596 -0.713,0.726 -1.461,1.492 -2.299,2.35 -8.996,9.141 -17.73,18.039 -17.73,40.257 L -38.83,1.725 c 0,-36.096 21.797,-52.93 27.303,-58.536 0.326,-0.32 0.615,-0.617 0.902,-0.91 -4.547,-5.129 -10.967,-8.365 -20.059,-8.365 v -17.908 c 39.04,1.05 47.92,38.795 47.92,83.231 z" /></g><g
           transform="translate(384.0986,161.1797)"
           id="g28"><path
             id="path30"
             style="fill:#ffffff;fill-opacity:1;fill-rule:nonzero;stroke:none"
             d="m 0,0 c 4.023,4.365 11.227,8.769 17.898,11.875 15.905,7.371 36.551,8.894 36.551,8.894 -13.886,0 -24.281,-0.058 -34.033,-1.595 -38.207,-6.024 -48.549,-22.544 -48.549,-31.014 0,-9.911 13.246,-25.943 48.633,-31.995 9.514,-1.63 20.141,-1.848 33.164,-1.848 0,0 -7.6,0.498 -17.336,2.906 -7.742,1.915 -16.836,5.188 -24.502,9.257 -9.555,5.049 -16.951,11.682 -16.951,21.434 0,2.953 0.891,7.498 5.125,12.086" /></g><g
           transform="translate(107.1884,190.5185)"
           id="g32"><path
             id="path34"
             style="fill:#ffffff;fill-opacity:1;fill-rule:nonzero;stroke:none"
             d="m 0,0 c 15.326,13.519 42.72,27.161 68.198,36.754 60.589,22.849 139.161,27.558 139.161,27.558 -52.859,0 -92.429,-0.184 -129.579,-4.947 -145.561,-18.657 -184.968,-69.817 -184.968,-96.04 0,-30.679 50.458,-80.318 185.215,-99.043 36.332,-5.046 76.731,-5.723 126.403,-5.723 0,0 -28.981,1.542 -66.051,8.987 -29.483,5.928 -64.084,16.065 -93.373,28.665 -36.356,15.635 -64.527,36.173 -64.527,66.355 0,9.163 3.408,23.232 19.521,37.434" /></g><g
           transform="translate(129.8134,201.1504)"
           id="g36"><path
             id="path38"
             style="fill:#ffffff;fill-opacity:1;fill-rule:nonzero;stroke:none"
             d="m 0,0 v -22.419 l 14.301,-0.278 V -97.78 l 16.17,0.54 v 74.19 l 12.431,-0.253 v 21.352 z" /></g><g
           transform="translate(235.8779,196.4961)"
           id="g40"><path
             id="path42"
             style="fill:#ffffff;fill-opacity:1;fill-rule:nonzero;stroke:none"
             d="m 0,0 v -20.058 l 14.66,-0.313 v -69.185 l 16.858,0.559 v 68.272 l 13.417,-0.279 v 18.961 z" /></g><g
           transform="translate(195.5888,141.7148)"
           id="g44"><path
             id="path46"
             style="fill:#ffffff;fill-opacity:1;fill-rule:nonzero;stroke:none"
             d="m 0,0 c 2.061,8.125 4.834,16.736 8.512,26.07 0,0 4.691,-11.191 8.861,-25.744 z M -1.697,56.593 C -3.374,50.987 -20.105,-5.752 -20.105,-37.251 l 14.974,0.49 c 0.144,5.07 0.508,10.2 1.143,15.462 l 26.172,0.812 c 0.869,-5.213 1.439,-10.413 1.521,-15.327 l 15.77,0.517 c 0,32.635 -19.231,84.768 -21.575,90.998 z" /></g></g></g></g></svg>