<svg xmlns="http://www.w3.org/2000/svg" viewBox="0 0 548.1875 318.53751"><path d="M247.22 141.74c15.77-16.896 43.895-33.94 70.056-45.94 62.244-28.56 142.98-34.45 142.98-34.45-54.312 0-94.958.233-133.126 6.184-149.534 23.32-190.017 87.284-190.017 120.05 0 38.352 51.826 100.412 190.262 123.817 37.34 6.303 78.827 7.138 129.87 7.138 0 0-29.764-1.916-67.88-11.24-30.27-7.392-65.81-20.064-95.9-35.82-37.36-19.543-66.302-45.217-66.302-82.938 0-11.45 3.506-29.05 20.057-46.8" fill="#8bc6a3" fill-rule="evenodd"/><path d="M414.425 78.355c0 12.936 1.155 34.25-3.428 51.994-.89-.907-1.826-1.866-2.873-2.937-11.245-11.428-22.164-22.55-22.164-50.322l-20.072-.892c0 45.12 27.246 66.163 34.128 73.17.408.4.77.77 1.128 1.137-5.684 6.41-13.71 10.456-25.074 10.456v22.388c48.8-1.313 59.9-48.494 59.9-104.04l-21.545-.953m65.698 38.707c5.03-5.457 14.033-10.962 22.373-14.844 19.88-9.215 45.69-11.12 45.69-11.12-17.36 0-30.352.074-42.543 1.995-47.758 7.53-60.685 28.18-60.685 38.768 0 12.388 16.557 32.43 60.79 39.993 11.893 2.038 25.176 2.31 41.456 2.31 0 0-9.5-.622-21.67-3.63-9.68-2.396-21.045-6.487-30.628-11.573-11.943-6.312-21.19-14.603-21.19-26.793 0-3.69 1.114-9.372 6.407-15.107" fill="#231f20"/><path d="M133.985 80.39c19.157-16.9 53.4-33.952 85.25-45.942C294.968 5.886 393.184 0 393.184 0 327.11 0 277.648.23 231.21 6.183 49.26 29.503 0 93.455 0 126.233c0 38.35 63.074 100.398 231.52 123.804 45.415 6.307 95.912 7.154 158.002 7.154 0 0-36.224-1.926-82.563-11.233-36.854-7.41-80.106-20.082-116.717-35.832-45.444-19.542-80.66-45.215-80.66-82.942 0-11.454 4.26-29.04 24.402-46.793" fill="#231f20"/><path d="M162.266 67.1v28.024l17.877.347v93.855l20.212-.675V95.91l15.54.318v-26.69l-53.63-2.438m132.583 5.818v25.07l18.325.393v86.483l21.072-.7v-85.34l16.77.35V75.47l-56.165-2.55m-52.486-2.266c-2.095 7.006-23.01 77.93-23.01 117.304l18.72-.613c.18-6.336.634-12.75 1.426-19.327l32.715-1.014c1.088 6.516 1.8 13.016 1.903 19.16l19.71-.65c0-40.793-24.037-105.96-26.967-113.746l-24.496-1.114zm2.122 70.74c2.575-10.156 6.043-20.92 10.64-32.588 0 0 5.864 13.99 11.076 32.18l-21.716.408" fill="#231f20"/></svg>