<svg xmlns="http://www.w3.org/2000/svg" viewBox="0 0 62.1 52.2"><path d="M7.2 31.1c-2.3.9-4.6 3.2-7.2 7.2l1.7 1.1c2.2-3.4 4.2-5.4 6-6.3-.5-.5-.6-1.3-.5-2zm17.6 6.7c-3.2-.4-5.8-2.2-8.3-3.9-1.7-1.2-3.8-2.6-5.5-3.1.2.7 0 1.4-.4 1.9 1.4.5 3.2 1.8 4.7 2.8 2.6 1.9 5.6 3.9 9.6 4.3-.3-.6-.3-1.4-.1-2zm28.7-33c-3.3 2.5-6.6 8.1-10.2 14.4-4.4 7.6-9.4 16.2-14.5 18.2.3.6.4 1.4.2 2.1 6-2 11.1-10.7 16.1-19.3 3.1-5.3 6.3-10.8 9.2-13.3-.5-.7-.7-1.4-.8-2.1zM.8 50.2h60.9v2H.8z"/><path d="M57.2 9.9c-2.7 0-5-2.2-5-5s2.2-5 5-5 5 2.2 5 5-2.3 5-5 5zm0-7.9c-1.6 0-3 1.3-3 3s1.3 3 3 3 3-1.3 3-3-1.4-3-3-3z"/><path d="M57.2 7.4c-1.3 0-2.4-1.1-2.4-2.4 0-1.3 1.1-2.4 2.4-2.4s2.4 1.1 2.4 2.4c0 1.3-1.1 2.4-2.4 2.4zm0-2.9c-.2 0-.4.2-.4.4s.2.4.4.4.4-.2.4-.4-.2-.4-.4-.4zM26.8 41.2c-1.3 0-2.4-1.1-2.4-2.4s1.1-2.4 2.4-2.4 2.4 1.1 2.4 2.4-1 2.4-2.4 2.4zm0-2.9c-.2 0-.4.2-.4.4s.2.4.4.4.4-.2.4-.4-.1-.4-.4-.4zM9.1 34c-1.3 0-2.4-1.1-2.4-2.4s1.1-2.4 2.4-2.4c1.3 0 2.4 1.1 2.4 2.4S10.4 34 9.1 34zm0-2.9c-.2 0-.4.2-.4.4s.1.5.4.5c.2 0 .4-.2.4-.4s-.2-.5-.4-.5z"/></svg>