<svg id="Слой_1" xmlns="http://www.w3.org/2000/svg" viewBox="0 0 52.9 52.7">
  <path d="M47.8 17.9l5.1-8.6L33.5 0l-5.9 6.1c-1.4-.4-2.8-.4-4.2.1-1.5.6-2.7 1.8-3.4 3.3l-2.4 5.2h-1.5c-3.2 0-4.4 1.6-6 3.7-.4.5-.7 1-1.2 1.6-2.1 2.6-4.6 5.8-5.3 6.8l-3.6.8 3.9 21.1h5.4c.1 2.2 2 4 4.3 4h.3c1.3 0 2.5-.6 3.3-1.6.8 1 2 1.6 3.3 1.6h.3c1.4 0 2.7-.7 3.4-1.7.8 1.1 2 1.7 3.4 1.7h.3c1.3 0 2.5-.6 3.3-1.6.8 1 2 1.6 3.3 1.6h.5c2 0 3.7-1.4 4.2-3.3h3.5c2.1 0 3.8-1.7 3.8-3.8v-1.2c0-.8-.2-1.6-.7-2.2 1.4-.5 2.5-1.9 2.5-3.6v-2.2c0-1-.3-1.8-.9-2.5 1.1-.7 1.8-1.9 1.8-3.2v-2.2c0-.8-.2-1.5-.6-2.1 1.4-.6 2.4-1.9 2.4-3.5v-1.2c0-1.9-1.4-3.5-3.2-3.8zM34 2.4l16 7.8-4.5 7.6H30.1l1.4-3.1c1.3-2.7.4-5.9-2-7.7L34 2.4zm-12.2 7.9c.5-1.1 1.3-1.9 2.4-2.3.5-.2 1-.3 1.5-.3.6 0 1.2.1 1.8.4 2.2 1 3.1 3.6 2.1 5.7l-6.1 13.4c-1 2.2-3.6 3.1-5.7 2.1-1.1-.5-1.9-1.3-2.3-2.4-.4-1.1-.4-2.3.1-3.3l6.2-13.3zm-7.9 40.4h-.3c-1.3 0-2.3-1-2.3-2.3v-2.9c0-1.3 1-2.3 2.3-2.3h.5c1.2 0 2.1 1 2.1 2.1v3.1c.1 1.3-1 2.3-2.3 2.3zm9.3-2.3c0 1.3-1 2.3-2.3 2.3h-.3c-1.3 0-2.3-1-2.3-2.3v-2.9c0-1.3 1-2.3 2.3-2.3h.5c1.2 0 2.1 1 2.1 2.1v3.1zm4.9 2.3h-.3c-1.3 0-2.3-1-2.3-2.3v-2.9c0-1.3 1-2.3 2.3-2.3h.5c1.2 0 2.1 1 2.1 2.1v3.1c0 1.3-1 2.3-2.3 2.3zm9.2-2.3c0 1.3-1 2.3-2.3 2.3h-.3c-1.3 0-2.3-1-2.3-2.3v-2.9c0-1.3 1-2.3 2.3-2.3h.5c1.2 0 2.1 1 2.1 2.1v3.1zM49 22.9c0 1-.8 1.8-1.8 1.8h-4v2h2.6c.8.3 1.4 1 1.4 1.8v2.2c0 1-.8 1.8-1.8 1.8-.1 0-.2.1-.3.1h-1.9v2h1.6c.8.2 1.5 1 1.5 1.9v2.2c0 1-.8 1.8-1.8 1.8h-2v2c1.1 0 2 .9 2 2v1.2c0 1-.8 1.8-1.8 1.8h-3.4v-2.2c0-2.3-1.8-4.1-4.1-4.1h-.5c-1.3 0-2.5.6-3.3 1.5-.8-.9-1.9-1.5-3.2-1.5h-.5c-1.4 0-2.6.7-3.4 1.7-.8-1-1.9-1.7-3.3-1.7h-.5c-1.3 0-2.5.6-3.3 1.5-.8-.9-1.9-1.5-3.2-1.5h-.5c-2.4 0-4.3 1.9-4.3 4.3v1.2H5.6L2.3 29.1l2.4-.5.3-.3s3.1-3.9 5.5-7.1c.5-.6.9-1.1 1.2-1.6 1.5-2.1 2.1-2.9 4.3-2.9h.6l-2.8 6.2c-.7 1.5-.8 3.3-.2 4.8.6 1.6 1.8 2.8 3.3 3.5.8.4 1.7.6 2.6.6 2.4 0 4.7-1.4 5.8-3.7l3.5-7.8.2-.5h18c1.1 0 2 .9 2 2v1.1z"/>
</svg>
