<?xml version="1.0" encoding="utf-8"?>
<!-- Generator: Adobe Illustrator 17.1.0, SVG Export Plug-In . SVG Version: 6.00 Build 0)  -->
<!DOCTYPE svg PUBLIC "-//W3C//DTD SVG 1.1//EN" "http://www.w3.org/Graphics/SVG/1.1/DTD/svg11.dtd">
<svg version="1.1" id="Layer_1" xmlns="http://www.w3.org/2000/svg" xmlns:xlink="http://www.w3.org/1999/xlink" x="0px" y="0px"
	 viewBox="0 0 73.1 83.9" enable-background="new 0 0 73.1 83.9" xml:space="preserve">
<path fill="#00AF00" d="M52.6,83.9c-0.5,0-1-0.5-1-1L51.5,76c0-0.3,0.2-0.7,0.5-0.9c0.1-0.1,11.3-7.2,15.6-14
	c5.2-8.1,3.1-20.1,2.8-21.5c0,0,0,0,0-0.1v0c-1-4.9-2.5-9.6-3.3-10.2c-0.6,0.2-1.8,0.8-0.9,5.2c2.1,10.4,0.3,14.9,0.2,15.1
	c0,0.1-0.1,0.2-0.2,0.3l-6.9,8.1c-0.4,0.4-1,0.5-1.4,0.1c-0.4-0.4-0.5-1-0.1-1.4c0-0.1,4.5-5.5,4.5-9.3c0-1.7-0.5-2.4-1-2.5
	c-0.5-0.2-1.2,0.3-1.7,1c-3.2,4.8-11,12.4-14.9,13.9c-6,2.3-8,6.6-5.9,12.6c0.5,1.6,1.3,2.5,1.3,2.5c0.1,0.2,0.3,0.4,0.3,0.6v7
	c0,0.6-0.4,1-1,1s-1-0.4-1-1V76c-1-0.4-0.9-1.4-1.3-2.7c-2.4-7.1,0.1-12.5,7.1-15.2c3.2-1.2,10.7-8.3,13.9-13.2
	c1-1.5,2.5-2.3,3.9-1.8c0.7,0.2,2.4,1.1,2.4,4.5c0,0.6-0.1,1.2-0.3,1.9l0.5-0.6c0.2-0.8,1.4-5-0.4-13.8c-0.3-1.6-1.3-6.6,2.5-7.6
	c0.3-0.1,0.8-0.1,1.4,0.2c2.2,1.4,3.8,9.2,4.3,11.6c0,0,0,0,0,0c0.5,2.4,2.4,14.3-3,22.9c-4.1,6.4-13.5,12.8-15.8,14.3l0.1,6.3
	C53.6,83.4,53.2,83.9,52.6,83.9C52.6,83.9,52.6,83.9,52.6,83.9z"/>
<path fill="#00AF00" d="M20.2,83.8C20.2,83.8,20.1,83.8,20.2,83.8c-0.6,0-1-0.5-1-1.1l0.4-6.3C17.2,75,7.8,68.6,3.8,62.2
	c-5.5-8.6-3.5-20.6-3.1-22.9h0c0,0,0,0,0,0c0.4-2.4,2-10.1,4.3-11.6c0.6-0.4,1.1-0.3,1.4-0.2c3.8,1,2.8,6,2.5,7.6
	c-1.8,8.8-0.6,13-0.4,13.8L9,49.4c-0.2-0.6-0.2-1.3-0.2-1.8c0-3.4,1.7-4.2,2.4-4.5c1.3-0.4,2.9,0.3,3.9,1.8
	c3.3,4.9,10.7,11.9,13.8,13.2c4,1.5,10.3,5.5,7.1,15.1c-0.5,1.5-1.4,2.4-1.4,2.9v6.6c0,0.6-0.4,1-1,1s-1-0.4-1-1v-7
	c0-0.3,0-0.5,0.2-0.7c0,0,0.7-0.8,1.3-2.3C36,66.5,34,62.2,28.1,60c-3.8-1.5-11.6-9.1-14.8-13.9c-0.6-0.9-1.3-1.2-1.7-1
	c-0.4,0.1-0.9,0.9-0.9,2.5c0,3.7,4.5,9.2,4.5,9.3c0.4,0.4,0.3,1.1-0.1,1.4c-0.4,0.4-1,0.3-1.4-0.1L6.8,50c-0.1-0.1-0.1-0.2-0.2-0.3
	c-0.1-0.2-1.9-4.6,0.2-15.1c0.9-4.4-0.3-5-0.9-5.2c-0.9,0.6-2.4,5.3-3.3,10.2l0,0c0,0,0,0,0,0.1C2.4,41,0.3,53,5.5,61.2
	C9.8,68,21,75.1,21.1,75.2c0.3,0.2,0.5,0.5,0.5,0.9l-0.4,6.8C21.2,83.4,20.7,83.8,20.2,83.8z"/>
<g>
	<g>
		<path fill="#00AF00" d="M30.1,53.3c-0.2,0-0.4-0.1-0.5-0.2c-0.1-0.1-0.2-0.3-0.2-0.5V36.7c-2.3-0.1-4.3-2-4.3-4.2V22.2
			c0-2.3,1.9-4.2,4.2-4.2h15.6c2.3,0,4.2,1.9,4.2,4.2v10.3c0,2.3-1.9,4.2-4.2,4.2h-0.2v15.6c0,0.4-0.3,0.7-0.7,0.8L30.1,53.3
			C30.1,53.3,30.1,53.3,30.1,53.3z M29.2,19.5c-1.5,0-2.7,1.2-2.7,2.7v10.3c0,1.6,1.6,2.7,3.1,2.7c0.1,0,0.2,0,0.3,0l0.5,0.2
			c0.3,0.1,0.5,0.4,0.5,0.7v15.6L43,51.6V36c0-0.4,0.3-0.8,0.8-0.8h1c1.5,0,2.7-1.2,2.7-2.7V22.2c0-1.5-1.2-2.7-2.7-2.7H29.2z"/>
		<path fill="#00AF00" d="M30.1,53.5L30.1,53.5c-0.3,0-0.5-0.1-0.7-0.3c-0.2-0.2-0.3-0.4-0.3-0.7V37c-2.4-0.2-4.3-2.2-4.3-4.4V22.2
			c0-2.5,2-4.5,4.5-4.5h15.6c2.5,0,4.5,2,4.5,4.5v10.3c0,2.5-2,4.5-4.5,4.5v15.4c0,0.5-0.4,1-1,1L30.1,53.5z M29.2,18.2
			c-2.2,0-4,1.8-4,4v10.3c0,2,1.9,3.9,4.1,4l0.2,0v16c0,0.1,0.1,0.3,0.1,0.4c0.1,0.1,0.2,0.1,0.4,0.1l0,0.3l0-0.3l13.7-0.2
			c0.3,0,0.5-0.2,0.5-0.5V36.5h0.5c2.2,0,4-1.8,4-4V22.2c0-2.2-1.8-4-4-4H29.2z M30.6,52V36.2c0-0.2-0.1-0.4-0.3-0.5l-0.5-0.2
			c-0.1,0-0.1,0-0.2,0c-1.6,0-3.3-1.3-3.3-3V22.2c0-1.6,1.3-3,3-3h15.6c1.6,0,3,1.3,3,3v10.3c0,1.6-1.3,3-3,3h-1
			c-0.3,0-0.5,0.2-0.5,0.5v15.9L30.6,52z M29.2,19.7c-1.4,0-2.5,1.1-2.5,2.5v10.3c0,1.4,1.5,2.5,2.8,2.5c0.1,0,0.2,0,0.3,0.1
			l0.5,0.2c0.4,0.1,0.7,0.5,0.7,0.9v15.4l11.7-0.2V36c0-0.6,0.4-1,1-1h1c1.4,0,2.5-1.1,2.5-2.5V22.2c0-1.4-1.1-2.5-2.5-2.5H29.2z"/>
	</g>
	<g>
		<path fill="#00AF00" d="M37.2,16c-4.3,0-7.9-3.5-7.9-7.9s3.5-7.9,7.9-7.9S45,3.8,45,8.1S41.5,16,37.2,16z M37.2,1.8
			c-3.5,0-6.4,2.9-6.4,6.4s2.9,6.4,6.4,6.4s6.4-2.9,6.4-6.4S40.7,1.8,37.2,1.8z"/>
		<path fill="#00AF00" d="M37.2,16.2c-4.5,0-8.1-3.6-8.1-8.1C29,3.6,32.7,0,37.2,0c4.5,0,8.1,3.6,8.1,8.1
			C45.3,12.6,41.6,16.2,37.2,16.2z M37.2,0.5c-4.2,0-7.6,3.4-7.6,7.6c0,4.2,3.4,7.6,7.6,7.6c4.2,0,7.6-3.4,7.6-7.6
			C44.8,3.9,41.4,0.5,37.2,0.5z M37.2,14.7c-3.6,0-6.6-3-6.6-6.6c0-3.6,3-6.6,6.6-6.6c3.6,0,6.6,3,6.6,6.6
			C43.8,11.8,40.8,14.7,37.2,14.7z M37.2,2C33.8,2,31,4.7,31,8.1c0,3.4,2.7,6.1,6.1,6.1c3.4,0,6.1-2.7,6.1-6.1
			C43.3,4.7,40.5,2,37.2,2z"/>
	</g>
</g>
<path fill="#00AF00" d="M37.5,52.7c-0.6,0-1-0.4-1-1v-14c0-0.6,0.4-1,1-1s1,0.4,1,1v14C38.5,52.2,38,52.7,37.5,52.7z"/>
</svg>
