<svg xmlns="http://www.w3.org/2000/svg" viewBox="0 0 73.1 83.9"><path d="M52.6 83.9c-.5 0-1-.5-1-1l-.1-6.9c0-.3.2-.7.5-.9.1-.1 11.3-7.2 15.6-14 5.2-8.1 3.1-20.1 2.8-21.5v-.1c-1-4.9-2.5-9.6-3.3-10.2-.6.2-1.8.8-.9 5.2 2.1 10.4.3 14.9.2 15.1 0 .1-.1.2-.2.3L59.3 58c-.4.4-1 .5-1.4.1-.4-.4-.5-1-.1-1.4 0-.1 4.5-5.5 4.5-9.3 0-1.7-.5-2.4-1-2.5-.5-.2-1.2.3-1.7 1-3.2 4.8-11 12.4-14.9 13.9-6 2.3-8 6.6-5.9 12.6.5 1.6 1.3 2.5 1.3 2.5.1.2.3.4.3.6v7c0 .6-.4 1-1 1s-1-.4-1-1V76c-1-.4-.9-1.4-1.3-2.7-2.4-7.1.1-12.5 7.1-15.2 3.2-1.2 10.7-8.3 13.9-13.2 1-1.5 2.5-2.3 3.9-1.8.7.2 2.4 1.1 2.4 4.5 0 .6-.1 1.2-.3 1.9l.5-.6c.2-.8 1.4-5-.4-13.8-.3-1.6-1.3-6.6 2.5-7.6.3-.1.8-.1 1.4.2 2.2 1.4 3.8 9.2 4.3 11.6.5 2.4 2.4 14.3-3 22.9-4.1 6.4-13.5 12.8-15.8 14.3l.1 6.3c-.1.6-.5 1.1-1.1 1.1z"/><path d="M20.2 83.8s-.1 0 0 0c-.6 0-1-.5-1-1.1l.4-6.3C17.2 75 7.8 68.6 3.8 62.2-1.7 53.6.3 41.6.7 39.3c.4-2.4 2-10.1 4.3-11.6.6-.4 1.1-.3 1.4-.2 3.8 1 2.8 6 2.5 7.6-1.8 8.8-.6 13-.4 13.8l.5.5c-.2-.6-.2-1.3-.2-1.8 0-3.4 1.7-4.2 2.4-4.5 1.3-.4 2.9.3 3.9 1.8 3.3 4.9 10.7 11.9 13.8 13.2 4 1.5 10.3 5.5 7.1 15.1-.5 1.5-1.4 2.4-1.4 2.9v6.6c0 .6-.4 1-1 1s-1-.4-1-1v-7c0-.3 0-.5.2-.7 0 0 .7-.8 1.3-2.3 1.9-6.2-.1-10.5-6-12.7-3.8-1.5-11.6-9.1-14.8-13.9-.6-.9-1.3-1.2-1.7-1-.4.1-.9.9-.9 2.5 0 3.7 4.5 9.2 4.5 9.3.4.4.3 1.1-.1 1.4-.4.4-1 .3-1.4-.1L6.8 50c-.1-.1-.1-.2-.2-.3-.1-.2-1.9-4.6.2-15.1.9-4.4-.3-5-.9-5.2-.9.6-2.4 5.3-3.3 10.2v.1C2.4 41 .3 53 5.5 61.2 9.8 68 21 75.1 21.1 75.2c.3.2.5.5.5.9l-.4 6.8c0 .5-.5.9-1 .9z"/><g><path d="M30.1 53.3c-.2 0-.4-.1-.5-.2-.1-.1-.2-.3-.2-.5V36.7c-2.3-.1-4.3-2-4.3-4.2V22.2c0-2.3 1.9-4.2 4.2-4.2h15.6c2.3 0 4.2 1.9 4.2 4.2v10.3c0 2.3-1.9 4.2-4.2 4.2h-.2v15.6c0 .4-.3.7-.7.8l-13.9.2zm-.9-33.8c-1.5 0-2.7 1.2-2.7 2.7v10.3c0 1.6 1.6 2.7 3.1 2.7h.3l.5.2c.3.1.5.4.5.7v15.6l12.1-.1V36c0-.4.3-.8.8-.8h1c1.5 0 2.7-1.2 2.7-2.7V22.2c0-1.5-1.2-2.7-2.7-2.7H29.2z"/><path d="M30.1 53.5c-.3 0-.5-.1-.7-.3-.2-.2-.3-.4-.3-.7V37c-2.4-.2-4.3-2.2-4.3-4.4V22.2c0-2.5 2-4.5 4.5-4.5h15.6c2.5 0 4.5 2 4.5 4.5v10.3c0 2.5-2 4.5-4.5 4.5v15.4c0 .5-.4 1-1 1l-13.8.1zm-.9-35.3c-2.2 0-4 1.8-4 4v10.3c0 2 1.9 3.9 4.1 4h.2v16c0 .1.1.3.1.4.1.1.2.1.4.1v.3-.3l13.7-.2c.3 0 .5-.2.5-.5V36.5h.5c2.2 0 4-1.8 4-4V22.2c0-2.2-1.8-4-4-4H29.2zM30.6 52V36.2c0-.2-.1-.4-.3-.5l-.5-.2h-.2c-1.6 0-3.3-1.3-3.3-3V22.2c0-1.6 1.3-3 3-3h15.6c1.6 0 3 1.3 3 3v10.3c0 1.6-1.3 3-3 3h-1c-.3 0-.5.2-.5.5v15.9l-12.8.1zm-1.4-32.3c-1.4 0-2.5 1.1-2.5 2.5v10.3c0 1.4 1.5 2.5 2.8 2.5.1 0 .2 0 .3.1l.5.2c.4.1.7.5.7.9v15.4l11.7-.2V36c0-.6.4-1 1-1h1c1.4 0 2.5-1.1 2.5-2.5V22.2c0-1.4-1.1-2.5-2.5-2.5H29.2z"/><g><path d="M37.2 16c-4.3 0-7.9-3.5-7.9-7.9S32.8.2 37.2.2 45 3.8 45 8.1 41.5 16 37.2 16zm0-14.2c-3.5 0-6.4 2.9-6.4 6.4s2.9 6.4 6.4 6.4 6.4-2.9 6.4-6.4-2.9-6.4-6.4-6.4z"/><path d="M37.2 16.2c-4.5 0-8.1-3.6-8.1-8.1C29 3.6 32.7 0 37.2 0s8.1 3.6 8.1 8.1-3.7 8.1-8.1 8.1zm0-15.7c-4.2 0-7.6 3.4-7.6 7.6 0 4.2 3.4 7.6 7.6 7.6 4.2 0 7.6-3.4 7.6-7.6 0-4.2-3.4-7.6-7.6-7.6zm0 14.2c-3.6 0-6.6-3-6.6-6.6 0-3.6 3-6.6 6.6-6.6 3.6 0 6.6 3 6.6 6.6 0 3.7-3 6.6-6.6 6.6zm0-12.7C33.8 2 31 4.7 31 8.1c0 3.4 2.7 6.1 6.1 6.1 3.4 0 6.1-2.7 6.1-6.1.1-3.4-2.7-6.1-6-6.1z"/></g></g><path d="M37.5 52.7c-.6 0-1-.4-1-1v-14c0-.6.4-1 1-1s1 .4 1 1v14c0 .5-.5 1-1 1z"/></svg>
