<svg xmlns="http://www.w3.org/2000/svg" viewBox="0 0 71.5 35.6"><path d="M13 21.9c-3.1 0-5.5-2.4-5.5-5.5 0-3 2.5-5.5 5.5-5.5 3.1 0 5.5 2.5 5.5 5.5S16 21.9 13 21.9zm0-9c-1.9 0-3.5 1.6-3.5 3.5s1.6 3.5 3.5 3.5c2 0 3.5-1.6 3.5-3.5s-1.6-3.5-3.5-3.5zm49.1 3.5H33.4c-.6 0-1-.4-1-1s.4-1 1-1h28.8c.6 0 1 .4 1 1s-.5 1-1.1 1z"/><path d="M16.1 35.6C7.5 35.6 0 27.4 0 18.1v-2.5C0 6.7 6.6 0 15.5 0 21.3 0 27 4.7 29.8 9.6h34.6c.2 0 .4.1.6.2l6 4.4c.2.2.4.4.4.7 0 .3-.1.6-.3.8l-9.1 10c0 .1-.3.3-.6.3H57c-.2 0-.4-.1-.5-.2l-5.7-3.7-5.9 1.8c-.2.1-.5.1-.7 0l-5.3-2.2-5.5 4.1c-.2.1-.4.2-.6.2h-4c-1 2.2-5 9.6-12.7 9.6zM15.5 2C7.8 2 2 7.9 2 15.6v2.5c0 7.3 6 15.4 14.1 15.4 7.6 0 11.2-8.9 11.2-9 .2-.4.5-.6.9-.6h4.3l5.7-4.2c.3-.2.6-.3 1-.1l5.5 2.2 6-1.8c.3-.1.6 0 .8.1l5.8 3.7H61l8-8.8-4.9-3.6H29.3c-.4 0-.7-.2-.9-.5C25.9 6.6 20.7 2 15.5 2z"/></svg>