<svg xmlns="http://www.w3.org/2000/svg" viewBox="0 0 54.1 35.6"><path d="M53.1 35.6H1c-.6 0-1-.4-1-1V1c0-.6.4-1 1-1h52.1c.6 0 1 .4 1 1v33.6c0 .6-.5 1-1 1zM2 33.6h50.1V2H2v31.6z"/><path d="M27 17.9c-.2 0-.4-.1-.5-.2L3.2 2.8c-.5-.3-.6-.9-.3-1.4.3-.5.9-.6 1.4-.3L27 15.7 49.8 1.1c.5-.3 1.1-.2 1.4.3.3.5.2 1.1-.3 1.4l-23.3 15c-.2 0-.4.1-.6.1z"/><path d="M2 34.4c-.2 0-.5-.1-.6-.2-.4-.4-.5-1-.1-1.4l17-20.5c.4-.4 1-.5 1.4-.1.4.4.5 1 .1 1.4L2.8 34c-.2.3-.5.4-.8.4zm50.1 0c-.3 0-.6-.1-.8-.4l-17-20.5c-.4-.4-.3-1.1.1-1.4.4-.4 1.1-.3 1.4.1l17 20.5c.4.4.3 1.1-.1 1.4-.2.2-.4.3-.6.3z"/></svg>