<?xml version="1.0" encoding="utf-8"?>
<!-- Generator: Adobe Illustrator 20.1.0, SVG Export Plug-In . SVG Version: 6.00 Build 0)  -->
<svg version="1.1" id="Слой_1" xmlns="http://www.w3.org/2000/svg" xmlns:xlink="http://www.w3.org/1999/xlink" x="0px" y="0px"
	 viewBox="0 0 153.5 49.9" style="enable-background:new 0 0 153.5 49.9;" xml:space="preserve">
<style type="text/css">
	.st0{fill:#A0AAB4;}
	.st1{fill:#344960;}
	.st2{fill:#45AE00;}
</style>
<g>
	<path class="st0" d="M37.6,44.4c0-3.1,2.5-5.5,5.5-5.5c3.1,0,5.5,2.4,5.5,5.5c0,3.1-2.5,5.5-5.5,5.5C40,49.9,37.6,47.5,37.6,44.4z
		 M47.5,44.4c0-2.5-1.9-4.5-4.4-4.5s-4.5,2-4.5,4.5c0,2.5,2,4.5,4.5,4.5S47.5,46.9,47.5,44.4z"/>
	<path class="st0" d="M60.4,39.1v10.5h-1.1v-4.8h-6.6v4.8h-1.1V39.1h1.1v4.8h6.6v-4.8H60.4z"/>
	<path class="st0" d="M72.7,49.7h-1.1v-9.5h-5.3v5.1c0,3.7-1.6,4.6-3.5,4.4v-1c1.6,0.1,2.5-0.7,2.5-3.4v-6.1h7.4V49.7z"/>
	<path class="st0" d="M86.8,39.1v10.5h-1.1v-2.4c-0.9,1.6-2.5,2.6-4.5,2.6c-3,0-5.5-2.4-5.5-5.5c0-3.1,2.5-5.5,5.5-5.5
		c2,0,3.6,1,4.5,2.6v-2.4H86.8z M85.8,44.4c0-2.5-1.9-4.5-4.4-4.5s-4.5,2-4.5,4.5c0,2.5,2,4.5,4.5,4.5S85.8,46.9,85.8,44.4z"/>
	<path class="st0" d="M99.3,39.1v10.5h-1.1V41l-6.7,8.7h-0.9V39.1h1.1v8.7l6.7-8.7H99.3z M92.3,36.4h5.3v0.9h-5.3V36.4z"/>
	<path class="st0" d="M111.8,39.1v10.5h-1.1v-4.8h-6.6v4.8h-1.1V39.1h1.1v4.8h6.6v-4.8H111.8z"/>
</g>
<g>
	<path class="st1" d="M142.3,28.8c0.1,0,0.2,0,0.3,0c0.1,0,0.3,0,0.4-0.1c0.3,0,0.5-0.1,0.8-0.2c0.1,0,0.1,0,0.2,0
		c0.2,0,0.4-0.1,0.6-0.1c0,0,0.1,0,0.1,0c3.2-0.9,6-2.9,7.8-5.6l-5-3.5c-1,1.4-2.3,2.4-3.9,3l0,0c-0.7,0.3-1.4,0.4-2.1,0.5
		c0,0-0.1,0-0.1,0c-0.2,0-0.5,0-0.7,0c-4.6,0-8.3-3.7-8.3-8.3c0-4.6,3.7-8.3,8.3-8.3c0.3,0,0.6,0,0.8,0c0.1,0,0.3,0,0.4,0.1
		c0.1,0,0.3,0,0.4,0.1c0.5,0.1,0.9,0.2,1.3,0.4l2.2-5.7l0,0c-0.9-0.3-1.8-0.6-2.8-0.8l0,0c0,0-0.1,0-0.1,0c-0.3-0.1-0.7-0.1-1-0.1
		c0,0-0.1,0-0.1,0c-0.4,0-0.7,0-1.1,0c-8,0-14.4,6.5-14.4,14.4c0,8,6.5,14.4,14.4,14.4c0.3,0,0.5,0,0.8,0c0.1,0,0.2,0,0.3,0
		C141.9,28.8,142.1,28.8,142.3,28.8z"/>
	<path class="st1" d="M16,28.8c0.1,0,0.2,0,0.3,0c0.1,0,0.3,0,0.4-0.1c0.3,0,0.5-0.1,0.8-0.2c0.1,0,0.1,0,0.2,0
		c0.2,0,0.4-0.1,0.6-0.1c0,0,0.1,0,0.1,0c3.2-0.9,6-2.9,7.8-5.6l-5-3.5c-1,1.4-2.3,2.4-3.9,3l0,0c-0.7,0.3-1.4,0.4-2.1,0.5
		c0,0-0.1,0-0.1,0c-0.2,0-0.5,0-0.7,0c-4.6,0-8.3-3.7-8.3-8.3c0-4.6,3.7-8.3,8.3-8.3c0.3,0,0.6,0,0.8,0c0.1,0,0.3,0,0.4,0.1
		c0.1,0,0.3,0,0.4,0.1c0.5,0.1,0.9,0.2,1.3,0.4L19.6,1l0,0c-0.9-0.3-1.8-0.6-2.8-0.8l0,0c0,0-0.1,0-0.1,0c-0.3-0.1-0.7-0.1-1-0.1
		c0,0-0.1,0-0.1,0c-0.4,0-0.7,0-1.1,0C6.5,0,0,6.5,0,14.4c0,8,6.5,14.4,14.4,14.4c0.3,0,0.5,0,0.8,0c0.1,0,0.2,0,0.3,0
		C15.7,28.8,15.9,28.8,16,28.8z"/>
	<polygon class="st1" points="44.5,6.7 39.5,6.7 39.5,28.3 33.2,28.3 33.2,6.7 26,6.7 28.1,0.6 46.6,0.6 	"/>
	<polygon class="st1" points="73.7,0.6 92.2,0.6 94.3,6.7 87.1,6.7 87.1,28.3 80.8,28.3 80.8,6.7 75.8,6.7 	"/>
	<path class="st1" d="M65.1,23.9H54.8l-1.4,4.4h-6.9l9.4-27.8H64l9.4,27.8h-6.9L65.1,23.9z M63.2,18L59.9,7.8L56.7,18H63.2z"/>
	<polygon class="st1" points="111.2,28.3 123.6,0.6 117.3,0.6 104.9,28.3 	"/>
	<polygon class="st1" points="100.3,0.6 106.7,19.6 112.9,19.6 106.5,0.6 	"/>
	<path class="st2" d="M153.5,8.7c0,1.7-1.3,3-3,3c-1.7,0-3-1.3-3-3c0-1.7,1.3-3,3-3C152.2,5.7,153.5,7,153.5,8.7"/>
</g>
</svg>
