<svg id="Слой_1" xmlns="http://www.w3.org/2000/svg" viewBox="0 0 153.5 49.9"><style>.st0{fill:#a0aab4}.st1{fill:#344960}.st2{fill:#45ae00}</style><path class="st0" d="M37.6 44.4c0-3.1 2.5-5.5 5.5-5.5 3.1 0 5.5 2.4 5.5 5.5s-2.5 5.5-5.5 5.5c-3.1 0-5.5-2.4-5.5-5.5zm9.9 0c0-2.5-1.9-4.5-4.4-4.5s-4.5 2-4.5 4.5 2 4.5 4.5 4.5 4.4-2 4.4-4.5zm12.9-5.3v10.5h-1.1v-4.8h-6.6v4.8h-1.1V39.1h1.1v4.8h6.6v-4.8h1.1zm12.3 10.6h-1.1v-9.5h-5.3v5.1c0 3.7-1.6 4.6-3.5 4.4v-1c1.6.1 2.5-.7 2.5-3.4v-6.1h7.4v10.5zm14.1-10.6v10.5h-1.1v-2.4c-.9 1.6-2.5 2.6-4.5 2.6-3 0-5.5-2.4-5.5-5.5s2.5-5.5 5.5-5.5c2 0 3.6 1 4.5 2.6V39h1.1zm-1 5.3c0-2.5-1.9-4.5-4.4-4.5s-4.5 2-4.5 4.5 2 4.5 4.5 4.5 4.4-2 4.4-4.5zm13.5-5.3v10.5h-1.1V41l-6.7 8.7h-.9V39.1h1.1v8.7l6.7-8.7h.9zm-7-2.7h5.3v.9h-5.3v-.9zm19.5 2.7v10.5h-1.1v-4.8h-6.6v4.8H103V39.1h1.1v4.8h6.6v-4.8h1.1z"/><path class="st1" d="M142.3 28.8h.3c.1 0 .3 0 .4-.1.3 0 .5-.1.8-.2h.2c.2 0 .4-.1.6-.1h.1c3.2-.9 6-2.9 7.8-5.6l-5-3.5c-1 1.4-2.3 2.4-3.9 3-.7.3-1.4.4-2.1.5h-.8c-4.6 0-8.3-3.7-8.3-8.3 0-4.6 3.7-8.3 8.3-8.3h.8c.1 0 .3 0 .4.1.1 0 .3 0 .4.1.5.1.9.2 1.3.4l2.2-5.7c-.9-.3-1.8-.6-2.8-.8h-.1c-.3-.1-.7-.1-1-.1h-1.2c-8 0-14.4 6.5-14.4 14.4 0 8 6.5 14.4 14.4 14.4h1.1c.1-.2.3-.2.5-.2zM16 28.8h.3c.1 0 .3 0 .4-.1.3 0 .5-.1.8-.2h.2c.2 0 .4-.1.6-.1h.1c3.2-.9 6-2.9 7.8-5.6l-5-3.5c-1 1.4-2.3 2.4-3.9 3-.7.3-1.4.4-2.1.5h-.8c-4.6 0-8.3-3.7-8.3-8.3 0-4.6 3.7-8.3 8.3-8.3h.8c.1 0 .3 0 .4.1.1 0 .3 0 .4.1.5.1.9.2 1.3.4L19.6 1c-.9-.3-1.8-.6-2.8-.8h-.1c-.3-.1-.7-.1-1-.1h-1.2C6.5 0 0 6.5 0 14.4c0 8 6.5 14.4 14.4 14.4H16zM44.5 6.7h-5v21.6h-6.3V6.7H26L28.1.6h18.5zM73.7.6h18.5l2.1 6.1h-7.2v21.6h-6.3V6.7h-5zm-8.6 23.3H54.8l-1.4 4.4h-6.9L55.9.5H64l9.4 27.8h-6.9l-1.4-4.4zM63.2 18L59.9 7.8 56.7 18h6.5zm48 10.3L123.6.6h-6.3l-12.4 27.7z"/><path class="st1" d="M100.3.6l6.4 19h6.2l-6.4-19z"/><path class="st2" d="M153.5 8.7c0 1.7-1.3 3-3 3s-3-1.3-3-3 1.3-3 3-3 3 1.3 3 3"/></svg>