<svg id="Слой_1" xmlns="http://www.w3.org/2000/svg" viewBox="0 0 46 45.2">
  <path d="M10.3 45.2c-.2 0-.3 0-.5-.1-.3-.2-.5-.5-.5-.9v-9.6C3.3 31.4 0 25.8 0 18.9 0 8.1 9.9 0 23 0s23 8.1 23 18.9c0 10.8-9.9 18.9-23 18.9h-1.2L10.9 45c-.2.1-.4.2-.6.2zM23 2C11 2 2 9.3 2 18.9c0 4.5 1.5 10.6 8.8 14.2.3.2.6.5.6.9v8.4L21 36c.2-.1.4-.2.6-.2H23c12 0 21-7.3 21-16.9C44 9.3 35 2 23 2z"/>
  <path d="M33.3 13.5H12.7c-.6 0-1-.4-1-1s.4-1 1-1h20.6c.6 0 1 .4 1 1s-.5 1-1 1zM33.3 20.2H12.7c-.6 0-1-.4-1-1s.4-1 1-1h20.6c.6 0 1 .4 1 1s-.5 1-1 1zM23 26.8H12.7c-.6 0-1-.4-1-1s.4-1 1-1H23c.6 0 1 .4 1 1s-.4 1-1 1z"/>
</svg>
