<svg xmlns="http://www.w3.org/2000/svg" viewBox="0 0 62.6 57.1"><path d="M48.3 28.6c-7.9 0-14.3-6.4-14.3-14.3C33.9 6.4 40.4 0 48.3 0s14.3 6.4 14.3 14.3-6.4 14.3-14.3 14.3zm0-26.6C41.5 2 36 7.5 36 14.3s5.5 12.3 12.3 12.3 12.3-5.5 12.3-12.3S55.1 2 48.3 2z"/><path d="M51.3 27.3c-.4 11-10.9 19.2-24.7 19.2h-1.7c-.2 0-.4 0-.6.2l-11.5 7.6V44.2c0-.4-.2-.7-.6-.9C3.8 39.1 2 31.9 2 26.6 2 15.3 12.6 6.7 26.7 6.7c3.6 0 7 .6 10.1 1.6.2-.6.6-1.2 1-1.8-3.3-1.2-7-1.8-11-1.8C11.5 4.7 0 14.1 0 26.6c0 8.1 3.9 14.5 10.9 18.2v11.3c0 .4.2.7.5.9.1.1.3.1.5.1s.4-.1.6-.2l12.8-8.5c.5 0 .9.1 1.4.1 15.1 0 26.5-9.3 26.7-21.7-.7.3-1.3.4-2.1.5z"/><path d="M48.7 22.3c-.6 0-1-.4-1-1V10.5l-2.6 3.7c-.3.5-.9.6-1.4.2-.5-.3-.6-.9-.2-1.4l4.4-6.3c.3-.4.7-.5 1.1-.4.4.1.7.5.7 1v14c0 .6-.4 1-1 1z"/></svg>