<svg xmlns="http://www.w3.org/2000/svg" viewBox="0 0 52.3 39.7"><path d="M8.8 14.1H1.2c-.6 0-1-.4-1-1s.4-1 1-1h7.6c.6 0 1 .4 1 1s-.5 1-1 1zm19.1 7.6h-19c-.6 0-1-.4-1-1s.4-1 1-1h17.9v-18c0-.6.4-1 1-1s1 .4 1 1v18.9c.1.6-.4 1.1-.9 1.1zm19.5-9.5H32c-.6 0-1-.4-1-1s.4-1 1-1h15.5c.6 0 1 .4 1 1s-.5 1-1.1 1zm0 9.5H32c-.6 0-1-.4-1-1s.4-1 1-1h15.5c.6 0 1 .4 1 1s-.5 1-1.1 1zm0-4.8H32c-.6 0-1-.4-1-1s.4-1 1-1h15.5c.6 0 1 .4 1 1s-.5 1-1.1 1zm0 14.2H13.8c-.6 0-1-.4-1-1s.4-1 1-1h33.7c.6 0 1 .4 1 1s-.5 1-1.1 1z"/><path d="M5.8 39.7H4c-1.1 0-2.1-.4-2.8-1.2-.8-.8-1.2-1.8-1.2-2.8l.1-22.6c0-.6.4-1 1-1s1 .5 1 1L2 35.7c0 .5.2 1 .6 1.4s.9.6 1.4.6h1.8c1.1 0 2-.9 2-2V1c0-.6.4-1 1-1s1 .4 1 1v34.7c0 2.2-1.8 4-4 4z"/><path d="M47.3 39.7H5.1c-.6 0-1-.4-1-1s.4-1 1-1h42.1c1.7 0 3-1.3 3-3V1c0-.6.4-1 1-1s1 .4 1 1v33.7c.1 2.7-2.2 5-4.9 5z"/><path d="M51.3 2H8.8c-.6 0-1-.4-1-1s.4-1 1-1h42.5c.6 0 1 .4 1 1s-.5 1-1 1z"/></svg>