<svg version="1.1" id="Слой_1" xmlns="http://www.w3.org/2000/svg" xmlns:xlink="http://www.w3.org/1999/xlink" x="0px" y="0px"
	 viewBox="0 0 29.7 33.9" style="enable-background:new 0 0 29.7 33.9;" xml:space="preserve">
<path d="M27.7,2v29.9H2V9.6L9.2,2H27.7 M27.7,0H9.2C8.6,0,8.1,0.2,7.7,0.6L0.5,8.3C0.2,8.6,0,9.1,0,9.6v22.3
	c0,1.1,0.9,2,2,2h25.7c1.1,0,2-0.9,2-2V2C29.7,0.9,28.8,0,27.7,0L27.7,0z"/>
<path d="M9.6,11.8h-8c-0.6,0-1-0.4-1-1s0.4-1,1-1h7v-8c0-0.6,0.4-1,1-1s1,0.4,1,1v9C10.6,11.4,10.2,11.8,9.6,11.8z"/>
</svg>
