<svg id="Слой_1" xmlns="http://www.w3.org/2000/svg" viewBox="0 0 43.5 42.7">
  <path  d="M9.8 42.7c-.2 0-.3 0-.5-.1-.3-.2-.5-.5-.5-.9v-9C3.1 29.6 0 24.4 0 17.9 0 7.7 9.3 0 21.7 0s21.7 7.7 21.7 17.9-9.3 17.9-21.7 17.9h-1.1l-10.3 6.8c-.1 0-.3.1-.5.1zM21.7 2C10.5 2 2 8.8 2 17.9c0 4.2 1.4 9.9 8.2 13.3.3.2.6.5.6.9v7.8l9-6c.2-.1.4-.2.6-.2H21.8c11.2 0 19.7-6.8 19.7-15.9S33 2 21.7 2z"/>
  <path d="M7.2 22.2c-.1-.1-.2-.3-.2-.5 0-.1 0-.2.1-.3 0-.1.1-.2.2-.3.1 0 .2-.1.3-.1.1 0 .2-.1.3-.1.3 0 .5.1.7.4.2.3.5.6.8.8.3.2.7.3 1.1.3.3 0 .6-.1.8-.2.3-.1.5-.3.7-.5.2-.2.4-.4.5-.7.1-.3.2-.6.2-.9 0-.3-.1-.6-.2-.8-.1-.3-.3-.5-.4-.7-.2-.2-.4-.3-.6-.5-.2-.1-.5-.2-.8-.2-.4 0-.8-.1-1.2-.3-.4-.2-.7-.4-.9-.7s-.5-.6-.6-1c-.2-.4-.2-.8-.2-1.2 0-.5.1-1 .3-1.4.2-.4.5-.8.9-1.1.6-.5 1.3-.8 2.1-.8.3 0 .5 0 .8.1.3.1.5.2.8.3.2.1.5.3.7.5.2.2.4.4.6.7.1.1.1.3.1.4 0 .1 0 .2-.1.3 0 .1-.1.2-.2.3-.1.1-.2.1-.3.2-.1 0-.2.1-.3.1h-.3c-.1 0-.2-.1-.2-.1l-.2-.2c-.1-.1-.1-.2-.2-.3-.1-.2-.3-.3-.5-.4-.2-.1-.4-.1-.7-.1-.2 0-.4 0-.6.1-.2.1-.4.2-.5.3-.1.1-.3.3-.4.5-.1.2-.1.4-.1.6 0 .2 0 .4.1.6.1.2.2.3.3.5.1.1.3.3.5.4.2.1.4.1.6.2.5 0 .9.2 1.4.4.4.2.8.5 1.1.8.3.3.6.7.8 1.2s.3.9.3 1.4c0 1.2-.5 2.2-1.4 3-.7.6-1.5.9-2.5.9-.3 0-.6 0-.9-.1l-.9-.3c-.3-.1-.6-.3-.8-.5-.5-.5-.7-.7-.9-1zM15.4 23.1V12.3c0-.1 0-.2.1-.3 0-.1.1-.2.2-.3.1-.1.2-.1.3-.2.1 0 .2-.1.3-.1.3 0 .6.1.7.4l4.7 9.4 4.7-9.4c.2-.3.4-.4.7-.4.1 0 .2 0 .3.1.1 0 .2.1.3.2.1.1.1.2.2.3 0 .1.1.2.1.3v10.9c0 .2-.1.4-.2.6-.2.2-.4.2-.6.2-.2 0-.4-.1-.6-.2-.2-.2-.2-.4-.2-.6v-7.3l-3.9 7.8c-.3.1-.5.3-.8.3-.3 0-.6-.2-.8-.5l-3.8-7.7v7.3c0 .2-.1.4-.2.6-.2.2-.4.2-.6.2-.2 0-.4-.1-.6-.2-.2-.1-.3-.3-.3-.6zM29.3 22.2c-.1-.1-.2-.3-.2-.5 0-.1 0-.2.1-.3s.1-.2.2-.3c.1-.1.2-.1.3-.2.1 0 .2-.1.3-.1.3 0 .5.1.7.4.2.3.5.6.8.8s.7.3 1.1.3c.3 0 .6-.1.8-.2.3-.1.5-.3.7-.5.2-.2.4-.4.5-.7.1-.3.2-.6.2-.9 0-.3-.1-.6-.2-.8-.1-.3-.3-.5-.4-.7-.2-.2-.4-.3-.6-.5-.4 0-.6 0-.9-.1-.4 0-.8-.1-1.2-.3-.4-.2-.7-.4-.9-.7-.3-.3-.5-.6-.6-1-.2-.4-.2-.8-.2-1.2 0-.5.1-1 .3-1.4.2-.4.5-.8.9-1.1.6-.5 1.3-.8 2.1-.8.3 0 .5 0 .8.1.3.1.5.2.8.3.2.1.5.3.7.5.2.2.4.4.6.7.1.1.1.3.1.4 0 .1 0 .2-.1.3 0 .1-.1.2-.2.3-.1.1-.2.1-.3.2-.1 0-.2.1-.3.1h-.3c-.1 0-.2-.1-.2-.1l-.2-.2c-.1-.1-.1-.2-.2-.3-.1-.2-.3-.3-.5-.4-.2-.1-.4-.1-.7-.1-.2 0-.4 0-.6.1-.2.1-.4.2-.5.3-.1.1-.3.3-.4.5-.1.2-.1.4-.1.6 0 .2 0 .4.1.6.1.2.2.3.3.5.1.1.3.3.5.4.2.1.4.1.6.2.5 0 .9.2 1.4.4.4.2.8.5 1.1.8.3.3.6.7.8 1.2s.3.9.3 1.4c0 1.2-.5 2.2-1.4 3-.7.6-1.5.9-2.5.9-.3 0-.6 0-.9-.1l-.9-.3c-.3-.1-.6-.3-.8-.5-.4-.5-.6-.7-.8-1z"/>
</svg>
