<svg id="Слой_1" xmlns="http://www.w3.org/2000/svg" viewBox="0 0 39.1 50">
  <path d="M12.2 38.4c-.6 0-1-.4-1-1V18c0-2.2 1.8-4 4-4h.5c2.2 0 4 1.8 4 4v12.7c0 .6-.4 1-1 1s-1-.4-1-1V18c0-1.1-.9-2-2-2h-.5c-1.1 0-2 .9-2 2v19.4c0 .5-.4 1-1 1z"/>
  <path d="M14.7 50c-.3 0-.5-.1-.7-.3l-9-9c-.9-.9-1.5-2.1-1.6-3.3-.1-1.3.2-2.4 1.1-3.3 1.7-1.7 4.4-1.6 6.1.1l2.4 2.4c.4.4.4 1 0 1.4s-1 .4-1.4 0l-2.4-2.4c-.4-.4-1-.7-1.7-.7-.6 0-1.2.2-1.6.6-.4.4-.6 1-.5 1.6.1.7.5 1.5 1 2.1l9 9c.4.4.4 1 0 1.4-.2.3-.4.4-.7.4zM25.2 32.4c-.6 0-1-.4-1-1v-2.9c0-1.1-.9-1.9-2-1.9h-.5c-1.1 0-2 .9-2 1.9v2.9c0 .6-.4 1-1 1s-1-.4-1-1v-2.9c0-2.2 1.8-3.9 4-3.9h.5c2.2 0 4 1.8 4 3.9v2.9c0 .6-.5 1-1 1z"/>
  <path d="M31.6 32.4c-.6 0-1-.4-1-1V29c0-.8-.9-1.4-2-1.4h-.5c-1.1 0-2 .7-2 1.4v2.4c0 .6-.4 1-1 1s-1-.4-1-1V29c0-1.9 1.8-3.4 4-3.4h.5c2.2 0 4 1.5 4 3.4v2.4c0 .6-.4 1-1 1z"/>
  <path d="M38.1 39.8c-.6 0-1-.4-1-1v-8.4c0-1.1-.9-2-2-2h-.5c-1.2 0-2 .6-2 1v2c0 .6-.4 1-1 1s-1-.4-1-1v-2c0-1.7 1.8-3 4-3h.5c2.2 0 4 1.8 4 4v8.4c0 .6-.4 1-1 1z"/>
  <path d="M34.1 50H14.8c-.6 0-1-.4-1-1s.4-1 1-1h19.4c1.7 0 3-1.3 3-3v-6.9c0-.6.4-1 1-1s1 .4 1 1V45c-.1 2.8-2.3 5-5.1 5zM15.4 9.2c-.6 0-1-.4-1-1V1c0-.6.4-1 1-1s1 .4 1 1v7.2c0 .5-.4 1-1 1zM20.2 11.1c-.3 0-.5-.1-.7-.3-.4-.4-.4-1 0-1.4l5.1-5.1c.4-.4 1-.4 1.4 0s.4 1 0 1.4l-5.1 5.1c-.2.2-.4.3-.7.3zM29.9 15.2h-7.2c-.6 0-1-.4-1-1s.4-1 1-1h7.2c.6 0 1 .4 1 1s-.5 1-1 1z"/>
  <g>
    <path d="M10.7 11.1c-.3 0-.5-.1-.7-.3l-5.1-5c-.4-.4-.4-1 0-1.4s1-.4 1.4 0l5.1 5.1c.4.4.4 1 0 1.4-.2.1-.5.2-.7.2zM8.2 15.2H1c-.6 0-1-.4-1-1s.4-1 1-1h7.2c.6 0 1 .4 1 1s-.5 1-1 1z"/>
  </g>
</svg>
