<svg xmlns="http://www.w3.org/2000/svg" viewBox="0 0 65.2 81.2"><path d="M27.6 74.3h-9c-.6 0-1.3-.3-1.3-.9V32.7l-5.8 2.7c-.3.9-.9 3.2-2 5.9-1.6 3.9-4.4 4.8-6.6 4-1.5-.6-2-.7-2-.7-.3-.1-.5-.2-.7-.5s-.2-.6-.1-.9l5.2-12.9c.1-.3.3-.5.6-.6L19 24.4c.1 0 .2-.1.4-.1H38c.3 0 .5.2.7.3l6.6 6.3 9.6-5.3c.2-.1.5-.2.8-.1.3.1.5.3.6.5 0 .1.8 1.5 1.2 2.7 1.7 4.6-3 6.7-5 7.6l-.1.1c-2 .9-8.2 3.5-8.2 3.5-.4.2-.9.1-1.2-.2l-4.7-4.1v8.1L49 52.8c.2.2.3.5.3.8v13.9c0 .6-.1.9-.7.9h-10c-.6 0-1.3-.3-1.3-.9V57.2l-3-3.9h-6v20.1c-.1.6-.2.9-.7.9zm-8.4-2h7V52.4c0-.6.8-1.1 1.3-1.1h7.1c.3 0 .6.2.8.4l3.7 4.5c.2.2.1.5.1.7v9.4h8V54l-10.7-9.1c-.2-.2-.3-.5-.3-.8V33.3c0-.4.4-.8.8-.9.4-.2.9-.1 1.2.2l5.8 5.2c1.6-.7 6-2.6 7.6-3.3l.1-.1c3.1-1.3 4.8-2.7 3.9-5.1-.2-.5-.4-1.1-.7-1.6L45.6 33c-.4.2-.9.1-1.2-.2l-6.8-6.5h-18L7 31.4 2.4 42.9c.3.1.8.3 1.3.5 1.2.5 3 0 4.1-2.8 1.4-3.4 2.1-6.1 2.1-6.1.1-.3.3-.5.6-.7l7.8-3.5c.3-.1.5-.1.8.1.3.2.3.5.3.8v41.1z"/><path d="M53.6 8.4c0-.6-.4-1-1-1s-1 .4-1 1v59.1c.7 0 1.4.1 2 .2V8.4z"/><g><path d="M64.2 18.4H52.6c-.4 0-.8-.3-.8-.8V8.8c0-.4.3-.8.8-.8h11.6c.3 0 .5.1.6.4s.2.5 0 .7l-2 4.1 2 4.1c.1.2.1.5 0 .7s-.4.4-.6.4zm-10.9-1.5H63l-1.6-3.4c-.1-.2-.1-.4 0-.7L63 9.5h-9.6v7.4z"/><path d="M64.2 18.6H52.6c-.6 0-1-.4-1-1V8.8c0-.6.4-1 1-1h11.6c.3 0 .7.2.8.5s.2.7.1 1l-1.9 4 1.9 4c.2.3.1.7-.1 1s-.5.3-.8.3zM52.6 8.3c-.3 0-.5.2-.5.5v8.9c0 .3.2.5.5.5h11.6c.2 0 .3-.1.4-.2.1-.1.1-.3 0-.5l-2-4.2 2-4.2c.1-.2.1-.3 0-.5-.1-.1-.3-.2-.4-.2H52.6zm10.8 8.8H53.1V9.3h10.3L61.6 13c-.1.1-.1.3 0 .4l1.8 3.7zm-9.8-.5h9l-1.4-3c-.1-.3-.1-.6 0-.9l1.4-3h-9v6.9z"/></g><path d="M1 81.2c-.3 0-.5-.1-.7-.3-.4-.4-.4-1 0-1.4l7.2-6.9c.2-.2.4-.3.7-.3h23.2l3.2-5.5c.2-.3.5-.5.9-.5h28.1c.6 0 1 .4 1 1s-.4 1-1 1H36l-3.2 5.5c-.2.3-.5.5-.9.5H8.6l-6.9 6.6c-.2.2-.4.3-.7.3zM28.4 2c4.7 0 8.5 3.8 8.5 8.5S33.1 19 28.4 19s-8.5-3.8-8.5-8.5S23.7 2 28.4 2m0-2c-5.8 0-10.5 4.7-10.5 10.5S22.6 21 28.4 21s10.5-4.7 10.5-10.5S34.2 0 28.4 0z"/></svg>
