<?xml version="1.0" encoding="utf-8"?>
<!-- Generator: Adobe Illustrator 17.1.0, SVG Export Plug-In . SVG Version: 6.00 Build 0)  -->
<!DOCTYPE svg PUBLIC "-//W3C//DTD SVG 1.1//EN" "http://www.w3.org/Graphics/SVG/1.1/DTD/svg11.dtd">
<svg version="1.1" id="Layer_1" xmlns="http://www.w3.org/2000/svg" xmlns:xlink="http://www.w3.org/1999/xlink" x="0px" y="0px"
	 viewBox="0 0 65.2 81.2" enable-background="new 0 0 65.2 81.2" xml:space="preserve">
<path fill="#00AF00" d="M27.6,74.3h-9c-0.6,0-1.3-0.3-1.3-0.9V32.7l-5.8,2.7c-0.3,0.9-0.9,3.2-2,5.9c-1.6,3.9-4.4,4.8-6.6,4
	c-1.5-0.6-2-0.7-2-0.7c-0.3-0.1-0.5-0.2-0.7-0.5S0,43.5,0.1,43.2l5.2-12.9c0.1-0.3,0.3-0.5,0.6-0.6L19,24.4c0.1,0,0.2-0.1,0.4-0.1
	H38c0.3,0,0.5,0.2,0.7,0.3l6.6,6.3l9.6-5.3c0.2-0.1,0.5-0.2,0.8-0.1c0.3,0.1,0.5,0.3,0.6,0.5c0,0.1,0.8,1.5,1.2,2.7
	c1.7,4.6-3,6.7-5,7.6l-0.1,0.1c-2,0.9-8.2,3.5-8.2,3.5c-0.4,0.2-0.9,0.1-1.2-0.2l-4.7-4.1v8.1l10.7,9.1c0.2,0.2,0.3,0.5,0.3,0.8
	v13.9c0,0.6-0.1,0.9-0.7,0.9h-10c-0.6,0-1.3-0.3-1.3-0.9V57.2l-3-3.9h-6v20.1C28.2,74,28.1,74.3,27.6,74.3z M19.2,72.3h7V52.4
	c0-0.6,0.8-1.1,1.3-1.1h7.1c0.3,0,0.6,0.2,0.8,0.4l3.7,4.5c0.2,0.2,0.1,0.5,0.1,0.7v9.4h8V54l-10.7-9.1c-0.2-0.2-0.3-0.5-0.3-0.8
	V33.3c0-0.4,0.4-0.8,0.8-0.9c0.4-0.2,0.9-0.1,1.2,0.2l5.8,5.2c1.6-0.7,6-2.6,7.6-3.3l0.1-0.1c3.1-1.3,4.8-2.7,3.9-5.1
	c-0.2-0.5-0.4-1.1-0.7-1.6L45.6,33c-0.4,0.2-0.9,0.1-1.2-0.2l-6.8-6.5h-18L7,31.4L2.4,42.9c0.3,0.1,0.8,0.3,1.3,0.5
	c1.2,0.5,3,0,4.1-2.8c1.4-3.4,2.1-6.1,2.1-6.1c0.1-0.3,0.3-0.5,0.6-0.7l7.8-3.5c0.3-0.1,0.5-0.1,0.8,0.1c0.3,0.2,0.3,0.5,0.3,0.8
	V72.3z"/>
<path fill="#00AF00" d="M53.6,8.4c0-0.6-0.4-1-1-1s-1,0.4-1,1v59.1c0.7,0,1.4,0.1,2,0.2V8.4z"/>
<g>
	<path fill="#00AF00" d="M64.2,18.4H52.6c-0.4,0-0.8-0.3-0.8-0.8V8.8c0-0.4,0.3-0.8,0.8-0.8h11.6c0.3,0,0.5,0.1,0.6,0.4
		s0.2,0.5,0,0.7l-2,4.1l2,4.1c0.1,0.2,0.1,0.5,0,0.7S64.4,18.4,64.2,18.4z M53.3,16.9H63l-1.6-3.4c-0.1-0.2-0.1-0.4,0-0.7L63,9.5
		h-9.6V16.9z"/>
	<path fill="#00AF00" d="M64.2,18.6H52.6c-0.6,0-1-0.4-1-1V8.8c0-0.6,0.4-1,1-1h11.6c0.3,0,0.7,0.2,0.8,0.5s0.2,0.7,0.1,1l-1.9,4
		l1.9,4c0.2,0.3,0.1,0.7-0.1,1S64.5,18.6,64.2,18.6z M52.6,8.3c-0.3,0-0.5,0.2-0.5,0.5v8.9c0,0.3,0.2,0.5,0.5,0.5h11.6
		c0.2,0,0.3-0.1,0.4-0.2c0.1-0.1,0.1-0.3,0-0.5l-2-4.2l2-4.2c0.1-0.2,0.1-0.3,0-0.5c-0.1-0.1-0.3-0.2-0.4-0.2H52.6z M63.4,17.1H53.1
		V9.3h10.3L61.6,13c-0.1,0.1-0.1,0.3,0,0.4L63.4,17.1z M53.6,16.6h9l-1.4-3c-0.1-0.3-0.1-0.6,0-0.9l1.4-3h-9V16.6z"/>
</g>
<path fill="#00AF00" d="M1,81.2c-0.3,0-0.5-0.1-0.7-0.3c-0.4-0.4-0.4-1,0-1.4l7.2-6.9c0.2-0.2,0.4-0.3,0.7-0.3h23.2l3.2-5.5
	c0.2-0.3,0.5-0.5,0.9-0.5h28.1c0.6,0,1,0.4,1,1s-0.4,1-1,1H36l-3.2,5.5c-0.2,0.3-0.5,0.5-0.9,0.5H8.6l-6.9,6.6
	C1.5,81.1,1.3,81.2,1,81.2z"/>
<path fill="#00AF00" d="M28.4,2c4.7,0,8.5,3.8,8.5,8.5S33.1,19,28.4,19s-8.5-3.8-8.5-8.5S23.7,2,28.4,2 M28.4,0
	c-5.8,0-10.5,4.7-10.5,10.5S22.6,21,28.4,21s10.5-4.7,10.5-10.5S34.2,0,28.4,0L28.4,0z"/>
</svg>
