<svg id="Слой_1" xmlns="http://www.w3.org/2000/svg" viewBox="0 0 48.1 37.5">
  <style>
    .st0{fill:#45AE00;}
  </style>
  <path class="st0" d="M46.1 37.5H2c-1.2 0-2-.8-2-2V2C0 .8.8 0 2 0h44.1c1.2 0 2 .8 2 2v33.5c0 1.1-.9 2-2 2zM2 2v33.5h44.1V2H2z"/>
  <path class="st0" d="M39.4 31.8H22c-.6 0-1-.4-1-1v-2.4c0-.6.4-1 1-1h17.4c.6 0 1 .4 1 1v2.4c0 .6-.4 1-1 1zm-16.4-2h15.4v-.4H23v.4zM46.6 6.3H1c-.6 0-1-.4-1-1s.4-1 1-1h45.6c.6 0 1 .4 1 1s-.4 1-1 1zM16 19.8H8c-.6 0-1-.4-1-1v-8c0-.6.4-1 1-1h8c.6 0 1 .4 1 1v8c0 .6-.4 1-1 1zm-7-2h6v-6H9v6zM40.2 11.9H25.3c-.6 0-1-.4-1-1s.4-1 1-1h14.9c.6 0 1 .4 1 1s-.4 1-1 1zM40.2 15.5h-19c-.6 0-1-.4-1-1s.4-1 1-1h19c.6 0 1 .4 1 1s-.4 1-1 1zM16.6 28.2h-9c-.6 0-1-.4-1-1s.4-1 1-1h9c.6 0 1 .4 1 1s-.4 1-1 1zM16.6 31.8H7.4c-.6 0-1-.4-1-1s.4-1 1-1h9.2c.6 0 1 .4 1 1s-.4 1-1 1zM40.2 19h-19c-.6 0-1-.4-1-1s.4-1 1-1h19c.6 0 1 .4 1 1s-.4 1-1 1zM40.2 22.6h-19c-.6 0-1-.4-1-1s.4-1 1-1h19c.6 0 1 .4 1 1s-.4 1-1 1z"/>
</svg>
